<svg width="244" height="41" viewBox="0 0 244 41" fill="none" xmlns="http://www.w3.org/2000/svg">
<path d="M0.4 31V3H11.14C12.66 3 14.0333 3.38 15.26 4.14C16.4867 4.9 17.46 5.92 18.18 7.2C18.9 8.46667 19.26 9.87333 19.26 11.42C19.26 12.6867 19.0267 13.8533 18.56 14.92C18.1067 15.9733 17.4667 16.8867 16.64 17.66C15.8267 18.4333 14.8867 19.02 13.82 19.42L20.52 31H14.9L8.42 19.86H5.28V31H0.4ZM5.28 14.98H10.58C11.2733 14.98 11.9067 14.8067 12.48 14.46C13.0533 14.1133 13.5133 13.6467 13.86 13.06C14.2067 12.4733 14.38 11.82 14.38 11.1C14.38 10.3667 14.2067 9.70667 13.86 9.12C13.5133 8.53333 13.0533 8.06667 12.48 7.72C11.9067 7.37333 11.2733 7.2 10.58 7.2H5.28V14.98ZM32.7781 31.52C30.9381 31.52 29.2581 31.0467 27.7381 30.1C26.2315 29.1533 25.0248 27.88 24.1181 26.28C23.2248 24.68 22.7781 22.9133 22.7781 20.98C22.7781 19.5267 23.0381 18.1667 23.5581 16.9C24.0781 15.62 24.7915 14.5 25.6981 13.54C26.6181 12.5667 27.6848 11.8067 28.8981 11.26C30.1115 10.7133 31.4048 10.44 32.7781 10.44C34.3381 10.44 35.7648 10.7733 37.0581 11.44C38.3648 12.0933 39.4715 12.9933 40.3781 14.14C41.2848 15.2867 41.9448 16.5933 42.3581 18.06C42.7715 19.5267 42.8648 21.06 42.6381 22.66H28.0181C28.2048 23.4067 28.5115 24.08 28.9381 24.68C29.3648 25.2667 29.9048 25.74 30.5581 26.1C31.2115 26.4467 31.9515 26.6267 32.7781 26.64C33.6315 26.6533 34.4048 26.4533 35.0981 26.04C35.8048 25.6133 36.3915 25.04 36.8581 24.32L41.8381 25.48C41.0248 27.2533 39.8115 28.7067 38.1981 29.84C36.5848 30.96 34.7781 31.52 32.7781 31.52ZM27.8581 19H37.6981C37.5515 18.2 37.2381 17.48 36.7581 16.84C36.2915 16.1867 35.7115 15.6667 35.0181 15.28C34.3248 14.8933 33.5781 14.7 32.7781 14.7C31.9781 14.7 31.2381 14.8933 30.5581 15.28C29.8781 15.6533 29.2981 16.1667 28.8181 16.82C28.3515 17.46 28.0315 18.1867 27.8581 19ZM59.3703 24.98L63.7703 27.36C62.8503 28.6133 61.697 29.62 60.3103 30.38C58.9236 31.14 57.4103 31.52 55.7703 31.52C53.9303 31.52 52.2503 31.0467 50.7303 30.1C49.2236 29.1533 48.017 27.8867 47.1103 26.3C46.217 24.7 45.7703 22.9333 45.7703 21C45.7703 19.5333 46.0303 18.1667 46.5503 16.9C47.0703 15.62 47.7836 14.5 48.6903 13.54C49.6103 12.5667 50.677 11.8067 51.8903 11.26C53.1036 10.7133 54.397 10.44 55.7703 10.44C57.4103 10.44 58.9236 10.82 60.3103 11.58C61.697 12.34 62.8503 13.36 63.7703 14.64L59.3703 17C58.9036 16.4667 58.3503 16.0533 57.7103 15.76C57.0836 15.4667 56.437 15.32 55.7703 15.32C54.8103 15.32 53.9436 15.5867 53.1703 16.12C52.397 16.64 51.7836 17.3333 51.3303 18.2C50.877 19.0533 50.6503 19.9867 50.6503 21C50.6503 22 50.877 22.9333 51.3303 23.8C51.7836 24.6533 52.397 25.34 53.1703 25.86C53.9436 26.38 54.8103 26.64 55.7703 26.64C56.4636 26.64 57.1236 26.4933 57.7503 26.2C58.377 25.8933 58.917 25.4867 59.3703 24.98ZM67.5797 11H72.4597V31H67.5797V11ZM70.0597 8.42C69.3397 8.42 68.733 8.18667 68.2397 7.72C67.7464 7.24 67.4997 6.64 67.4997 5.92C67.4997 5.21333 67.7464 4.62 68.2397 4.14C68.733 3.66 69.333 3.42 70.0397 3.42C70.7464 3.42 71.3397 3.66 71.8197 4.14C72.313 4.62 72.5597 5.21333 72.5597 5.92C72.5597 6.64 72.3197 7.24 71.8397 7.72C71.3597 8.18667 70.7664 8.42 70.0597 8.42ZM82.8347 41H77.9547V11H82.8347V13.54C83.488 12.6333 84.288 11.9 85.2347 11.34C86.1947 10.7667 87.3147 10.48 88.5947 10.48C90.0614 10.48 91.428 10.7533 92.6947 11.3C93.9614 11.8467 95.0747 12.6067 96.0347 13.58C97.008 14.54 97.7614 15.6533 98.2947 16.92C98.8414 18.1867 99.1147 19.5467 99.1147 21C99.1147 22.4533 98.8414 23.82 98.2947 25.1C97.7614 26.38 97.008 27.5067 96.0347 28.48C95.0747 29.44 93.9614 30.1933 92.6947 30.74C91.428 31.2867 90.0614 31.56 88.5947 31.56C87.3147 31.56 86.1947 31.28 85.2347 30.72C84.288 30.1467 83.488 29.4067 82.8347 28.5V41ZM88.5347 15.18C87.5214 15.18 86.6147 15.4467 85.8147 15.98C85.0147 16.5 84.388 17.2 83.9347 18.08C83.4814 18.96 83.2547 19.9333 83.2547 21C83.2547 22.0667 83.4814 23.0467 83.9347 23.94C84.388 24.82 85.0147 25.5267 85.8147 26.06C86.6147 26.58 87.5214 26.84 88.5347 26.84C89.5614 26.84 90.5014 26.58 91.3547 26.06C92.208 25.54 92.888 24.84 93.3947 23.96C93.9014 23.0667 94.1547 22.08 94.1547 21C94.1547 19.9333 93.9014 18.96 93.3947 18.08C92.888 17.2 92.208 16.5 91.3547 15.98C90.5147 15.4467 89.5747 15.18 88.5347 15.18ZM112.13 31.52C110.29 31.52 108.61 31.0467 107.09 30.1C105.583 29.1533 104.376 27.88 103.47 26.28C102.576 24.68 102.13 22.9133 102.13 20.98C102.13 19.5267 102.39 18.1667 102.91 16.9C103.43 15.62 104.143 14.5 105.05 13.54C105.97 12.5667 107.036 11.8067 108.25 11.26C109.463 10.7133 110.756 10.44 112.13 10.44C113.69 10.44 115.116 10.7733 116.41 11.44C117.716 12.0933 118.823 12.9933 119.73 14.14C120.636 15.2867 121.296 16.5933 121.71 18.06C122.123 19.5267 122.216 21.06 121.99 22.66H107.37C107.556 23.4067 107.863 24.08 108.29 24.68C108.716 25.2667 109.256 25.74 109.91 26.1C110.563 26.4467 111.303 26.6267 112.13 26.64C112.983 26.6533 113.756 26.4533 114.45 26.04C115.156 25.6133 115.743 25.04 116.21 24.32L121.19 25.48C120.376 27.2533 119.163 28.7067 117.55 29.84C115.936 30.96 114.13 31.52 112.13 31.52ZM107.21 19H117.05C116.903 18.2 116.59 17.48 116.11 16.84C115.643 16.1867 115.063 15.6667 114.37 15.28C113.676 14.8933 112.93 14.7 112.13 14.7C111.33 14.7 110.59 14.8933 109.91 15.28C109.23 15.6533 108.65 16.1667 108.17 16.82C107.703 17.46 107.383 18.1867 107.21 19ZM141.862 6.06V11H147.722V14.36H141.862V31H138.502V14.36H135.922V11H138.502V6.06C138.502 5.03333 138.749 4.10666 139.242 3.28C139.749 2.44 140.422 1.77333 141.262 1.28C142.115 0.773332 143.049 0.519999 144.062 0.519999C144.809 0.519999 145.535 0.673332 146.242 0.979999C146.949 1.27333 147.575 1.71333 148.122 2.3L145.722 4.68C145.535 4.42667 145.289 4.23333 144.982 4.1C144.689 3.95333 144.382 3.88 144.062 3.88C143.462 3.88 142.942 4.09333 142.502 4.52C142.075 4.94667 141.862 5.46 141.862 6.06ZM151.798 11H155.158V31H151.798V11ZM153.518 7.74C152.985 7.74 152.538 7.56667 152.178 7.22C151.818 6.87333 151.638 6.44 151.638 5.92C151.638 5.4 151.818 4.96667 152.178 4.62C152.538 4.27333 152.978 4.1 153.498 4.1C154.018 4.1 154.458 4.27333 154.818 4.62C155.178 4.96667 155.358 5.4 155.358 5.92C155.358 6.44 155.178 6.87333 154.818 7.22C154.472 7.56667 154.038 7.74 153.518 7.74ZM178.525 18.56V31H175.165V19.3C175.165 18.2867 174.919 17.3667 174.425 16.54C173.932 15.7133 173.272 15.06 172.445 14.58C171.619 14.0867 170.699 13.84 169.685 13.84C168.685 13.84 167.765 14.0867 166.925 14.58C166.099 15.06 165.439 15.7133 164.945 16.54C164.452 17.3667 164.205 18.2867 164.205 19.3V31H160.845V11H164.205V13.5C164.912 12.5667 165.805 11.8267 166.885 11.28C167.965 10.72 169.139 10.44 170.405 10.44C171.899 10.44 173.259 10.8067 174.485 11.54C175.725 12.26 176.705 13.2333 177.425 14.46C178.159 15.6867 178.525 17.0533 178.525 18.56ZM199.234 0.999998H202.594V31H199.234V27.6C198.554 28.7733 197.641 29.72 196.494 30.44C195.348 31.16 194.001 31.52 192.454 31.52C191.001 31.52 189.641 31.2467 188.374 30.7C187.108 30.1533 185.988 29.4 185.014 28.44C184.054 27.4667 183.301 26.3467 182.754 25.08C182.208 23.8133 181.934 22.4533 181.934 21C181.934 19.5467 182.208 18.1867 182.754 16.92C183.301 15.64 184.054 14.52 185.014 13.56C185.988 12.5867 187.108 11.8267 188.374 11.28C189.641 10.7333 191.001 10.46 192.454 10.46C194.001 10.46 195.348 10.82 196.494 11.54C197.641 12.26 198.554 13.2067 199.234 14.38V0.999998ZM192.494 28.26C193.814 28.26 194.954 27.94 195.914 27.3C196.888 26.6467 197.634 25.7667 198.154 24.66C198.688 23.5533 198.954 22.3333 198.954 21C198.954 19.64 198.688 18.4133 198.154 17.32C197.621 16.2133 196.868 15.34 195.894 14.7C194.934 14.0467 193.801 13.72 192.494 13.72C191.174 13.72 189.974 14.0467 188.894 14.7C187.828 15.3533 186.974 16.2333 186.334 17.34C185.694 18.4333 185.374 19.6533 185.374 21C185.374 22.3467 185.701 23.5733 186.354 24.68C187.008 25.7733 187.874 26.6467 188.954 27.3C190.034 27.94 191.214 28.26 192.494 28.26ZM216.997 31.52C215.157 31.52 213.477 31.0467 211.957 30.1C210.45 29.1533 209.244 27.8867 208.337 26.3C207.444 24.7 206.997 22.9333 206.997 21C206.997 19.5333 207.257 18.1667 207.777 16.9C208.297 15.62 209.01 14.5 209.917 13.54C210.837 12.5667 211.904 11.8067 213.117 11.26C214.33 10.7133 215.624 10.44 216.997 10.44C218.504 10.44 219.884 10.7467 221.137 11.36C222.404 11.96 223.484 12.8 224.377 13.88C225.284 14.96 225.957 16.2133 226.397 17.64C226.85 19.0667 227.017 20.5933 226.897 22.22H210.577C210.737 23.3533 211.11 24.3667 211.697 25.26C212.284 26.14 213.03 26.84 213.937 27.36C214.857 27.88 215.877 28.1467 216.997 28.16C218.197 28.16 219.284 27.8533 220.257 27.24C221.23 26.6133 222.017 25.76 222.617 24.68L226.037 25.48C225.237 27.2533 224.03 28.7067 222.417 29.84C220.804 30.96 218.997 31.52 216.997 31.52ZM210.477 19.58H223.517C223.41 18.46 223.05 17.44 222.437 16.52C221.824 15.5867 221.044 14.84 220.097 14.28C219.15 13.72 218.117 13.44 216.997 13.44C215.877 13.44 214.85 13.7133 213.917 14.26C212.984 14.8067 212.21 15.5467 211.597 16.48C210.997 17.4 210.624 18.4333 210.477 19.58ZM231.267 31V11H234.627V13.5C235.334 12.5667 236.227 11.8267 237.307 11.28C238.387 10.72 239.561 10.44 240.827 10.44C241.601 10.44 242.347 10.54 243.067 10.74L241.707 14.1C241.161 13.9267 240.627 13.84 240.107 13.84C239.107 13.84 238.187 14.0867 237.347 14.58C236.521 15.06 235.861 15.7133 235.367 16.54C234.874 17.3667 234.627 18.2867 234.627 19.3V31H231.267Z" fill="#181A20"/>
</svg>
